<svg width="21" height="16" viewBox="0 0 21 16" fill="none" xmlns="http://www.w3.org/2000/svg">
<path d="M20.5 16H0.5V0H20.5V16Z" stroke="#E5E7EB"/>
<g clip-path="url(#clip0_11_1154)">
<path d="M20.5 16H0.5V0H20.5V16Z" stroke="#E5E7EB"/>
<path d="M16.8916 2.18239C16.8865 2.1725 16.878 2.16474 16.8677 2.16052C15.6764 1.61391 14.4191 1.22414 13.1275 1.00096C13.1158 0.998774 13.1037 1.00035 13.0929 1.00545C13.0821 1.01056 13.0732 1.01894 13.0674 1.02939C12.8962 1.34011 12.7408 1.65926 12.6018 1.98564C11.2095 1.77429 9.79329 1.77429 8.401 1.98564C8.26105 1.65844 8.10315 1.3392 7.92803 1.02939C7.92202 1.01916 7.91307 1.01098 7.90235 1.00591C7.89162 1.00083 7.87962 0.99911 7.8679 1.00096C6.57615 1.22367 5.31885 1.61347 4.12765 2.16055C4.11745 2.16487 4.10885 2.17225 4.10303 2.18167C1.72087 5.73911 1.06831 9.20908 1.38843 12.6361C1.38933 12.6445 1.39191 12.6526 1.39602 12.66C1.40013 12.6674 1.40568 12.6739 1.41234 12.679C2.79945 13.7061 4.35094 14.4901 6.00062 14.9975C6.01224 15.0009 6.02464 15.0008 6.03617 14.997C6.0477 14.9932 6.05779 14.986 6.06509 14.9763C6.4194 14.4942 6.73335 13.9837 7.00375 13.45C7.00746 13.4427 7.00958 13.4347 7.00997 13.4265C7.01036 13.4183 7.009 13.4101 7.00599 13.4024C7.00298 13.3948 6.99839 13.3879 6.99251 13.3821C6.98664 13.3764 6.97961 13.372 6.9719 13.3691C6.47683 13.1797 5.99754 12.9514 5.53853 12.6862C5.53019 12.6813 5.52319 12.6745 5.51814 12.6662C5.51309 12.658 5.51015 12.6486 5.50958 12.6389C5.50901 12.6293 5.51082 12.6196 5.51486 12.6108C5.5189 12.6021 5.52504 12.5944 5.53275 12.5885C5.62906 12.5164 5.72543 12.4413 5.8174 12.3655C5.82557 12.3588 5.83546 12.3545 5.84595 12.3531C5.85644 12.3516 5.86712 12.3532 5.87678 12.3575C8.88393 13.7299 12.1396 13.7299 15.1112 12.3575C15.1208 12.3529 15.1316 12.3512 15.1423 12.3524C15.1529 12.3537 15.163 12.358 15.1713 12.3648C15.2633 12.4406 15.3596 12.5164 15.4567 12.5885C15.4644 12.5943 15.4706 12.6019 15.4747 12.6107C15.4788 12.6195 15.4807 12.6291 15.4802 12.6387C15.4797 12.6484 15.4768 12.6578 15.4718 12.6661C15.4668 12.6744 15.4599 12.6813 15.4516 12.6862C14.9936 12.9536 14.5139 13.1818 14.0175 13.3684C14.0098 13.3714 14.0028 13.3759 13.997 13.3817C13.9911 13.3875 13.9866 13.3945 13.9836 13.4022C13.9807 13.4099 13.9794 13.4182 13.9799 13.4264C13.9803 13.4346 13.9825 13.4427 13.9863 13.45C14.2612 13.9808 14.5747 14.4906 14.9242 14.9755C14.9313 14.9854 14.9414 14.9929 14.9529 14.9968C14.9645 15.0007 14.977 15.0009 14.9887 14.9974C16.6413 14.4917 18.1955 13.7077 19.5844 12.679C19.5911 12.6741 19.5968 12.6678 19.6009 12.6605C19.605 12.6532 19.6075 12.6451 19.6083 12.6368C19.9915 8.67483 18.9667 5.2333 16.8916 2.18239ZM7.45284 10.5494C6.54746 10.5494 5.80146 9.71855 5.80146 8.69817C5.80146 7.6778 6.533 6.84689 7.45284 6.84689C8.37987 6.84689 9.11865 7.68502 9.10418 8.69811C9.10418 9.71855 8.37262 10.5494 7.45284 10.5494ZM13.5585 10.5494C12.6531 10.5494 11.9071 9.71855 11.9071 8.69817C11.9071 7.6778 12.6387 6.84689 13.5585 6.84689C14.4856 6.84689 15.2243 7.68502 15.2098 8.69811C15.2098 9.71855 14.4856 10.5494 13.5585 10.5494Z" fill="#6B7280"/>
</g>
<defs>
<clipPath id="clip0_11_1154">
<rect width="20" height="16" fill="white" transform="translate(0.5)"/>
</clipPath>
</defs>
</svg>
