<svg width="16" height="16" viewBox="0 0 16 16" fill="none" xmlns="http://www.w3.org/2000/svg">
<path d="M16 16H0.5V0H16V16Z" stroke="#E5E7EB"/>
<g clip-path="url(#clip0_11_1156)">
<g clip-path="url(#clip1_11_1156)">
<path d="M5.68437 12.4187C5.68437 12.4812 5.6125 12.5312 5.52187 12.5312C5.41875 12.5406 5.34688 12.4906 5.34688 12.4187C5.34688 12.3562 5.41875 12.3062 5.50938 12.3062C5.60313 12.2969 5.68437 12.3469 5.68437 12.4187ZM4.7125 12.2781C4.69063 12.3406 4.75313 12.4125 4.84688 12.4312C4.92813 12.4625 5.02187 12.4312 5.04063 12.3687C5.05938 12.3062 5 12.2344 4.90625 12.2063C4.825 12.1844 4.73438 12.2156 4.7125 12.2781ZM6.09375 12.225C6.00313 12.2469 5.94062 12.3063 5.95 12.3781C5.95937 12.4406 6.04063 12.4813 6.13438 12.4594C6.225 12.4375 6.2875 12.3781 6.27812 12.3156C6.26875 12.2563 6.18437 12.2156 6.09375 12.225ZM8.15 0.25C3.81563 0.25 0.5 3.54063 0.5 7.875C0.5 11.3406 2.68125 14.3063 5.79688 15.35C6.19688 15.4219 6.3375 15.175 6.3375 14.9719C6.3375 14.7781 6.32812 13.7094 6.32812 13.0531C6.32812 13.0531 4.14062 13.5219 3.68125 12.1219C3.68125 12.1219 3.325 11.2125 2.8125 10.9781C2.8125 10.9781 2.09687 10.4875 2.8625 10.4969C2.8625 10.4969 3.64062 10.5594 4.06875 11.3031C4.75312 12.5094 5.9 12.1625 6.34688 11.9563C6.41875 11.4563 6.62188 11.1094 6.84688 10.9031C5.1 10.7094 3.3375 10.4562 3.3375 7.45C3.3375 6.59062 3.575 6.15938 4.075 5.60938C3.99375 5.40625 3.72813 4.56875 4.15625 3.4875C4.80937 3.28437 6.3125 4.33125 6.3125 4.33125C6.9375 4.15625 7.60938 4.06563 8.275 4.06563C8.94063 4.06563 9.6125 4.15625 10.2375 4.33125C10.2375 4.33125 11.7406 3.28125 12.3938 3.4875C12.8219 4.57188 12.5563 5.40625 12.475 5.60938C12.975 6.1625 13.2812 6.59375 13.2812 7.45C13.2812 10.4656 11.4406 10.7063 9.69375 10.9031C9.98125 11.15 10.225 11.6187 10.225 12.3531C10.225 13.4062 10.2156 14.7094 10.2156 14.9656C10.2156 15.1687 10.3594 15.4156 10.7563 15.3438C13.8813 14.3062 16 11.3406 16 7.875C16 3.54063 12.4844 0.25 8.15 0.25ZM3.5375 11.0281C3.49687 11.0594 3.50625 11.1313 3.55938 11.1906C3.60938 11.2406 3.68125 11.2625 3.72187 11.2219C3.7625 11.1906 3.75312 11.1187 3.7 11.0594C3.65 11.0094 3.57812 10.9875 3.5375 11.0281ZM3.2 10.775C3.17813 10.8156 3.20937 10.8656 3.27187 10.8969C3.32187 10.9281 3.38438 10.9187 3.40625 10.875C3.42812 10.8344 3.39687 10.7844 3.33437 10.7531C3.27187 10.7344 3.22187 10.7437 3.2 10.775ZM4.2125 11.8875C4.1625 11.9281 4.18125 12.0219 4.25312 12.0813C4.325 12.1531 4.41562 12.1625 4.45625 12.1125C4.49688 12.0719 4.47813 11.9781 4.41563 11.9187C4.34688 11.8469 4.25313 11.8375 4.2125 11.8875ZM3.85625 11.4281C3.80625 11.4594 3.80625 11.5406 3.85625 11.6125C3.90625 11.6844 3.99062 11.7156 4.03125 11.6844C4.08125 11.6438 4.08125 11.5625 4.03125 11.4906C3.9875 11.4188 3.90625 11.3875 3.85625 11.4281Z" fill="#6B7280"/>
</g>
</g>
<defs>
<clipPath id="clip0_11_1156">
<rect width="15.5" height="16" fill="white" transform="translate(0.5)"/>
</clipPath>
<clipPath id="clip1_11_1156">
<path d="M0.5 0H16V16H0.5V0Z" fill="white"/>
</clipPath>
</defs>
</svg>
