<svg width="18" height="14" viewBox="0 0 18 14" fill="none" xmlns="http://www.w3.org/2000/svg">
<g clip-path="url(#clip0_11_1541)">
<g clip-path="url(#clip1_11_1541)">
<path d="M4.1875 0C4.76766 0 5.32406 0.230468 5.7343 0.640704C6.14453 1.05094 6.375 1.60734 6.375 2.1875C6.375 2.76766 6.14453 3.32406 5.7343 3.7343C5.32406 4.14453 4.76766 4.375 4.1875 4.375C3.60734 4.375 3.05094 4.14453 2.6407 3.7343C2.23047 3.32406 2 2.76766 2 2.1875C2 1.60734 2.23047 1.05094 2.6407 0.640704C3.05094 0.230468 3.60734 0 4.1875 0ZM14.25 0C14.8302 0 15.3866 0.230468 15.7968 0.640704C16.207 1.05094 16.4375 1.60734 16.4375 2.1875C16.4375 2.76766 16.207 3.32406 15.7968 3.7343C15.3866 4.14453 14.8302 4.375 14.25 4.375C13.6698 4.375 13.1134 4.14453 12.7032 3.7343C12.293 3.32406 12.0625 2.76766 12.0625 2.1875C12.0625 1.60734 12.293 1.05094 12.7032 0.640704C13.1134 0.230468 13.6698 0 14.25 0ZM0.25 8.16758C0.25 6.55703 1.55703 5.25 3.16758 5.25H4.33516C4.76992 5.25 5.18281 5.3457 5.55469 5.51523C5.51914 5.71211 5.50273 5.91719 5.50273 6.125C5.50273 7.16953 5.96211 8.10742 6.68672 8.75C6.68125 8.75 6.67578 8.75 6.66758 8.75H0.832422C0.5125 8.75 0.25 8.4875 0.25 8.16758ZM11.3324 8.75C11.327 8.75 11.3215 8.75 11.3133 8.75C12.0406 8.10742 12.4973 7.16953 12.4973 6.125C12.4973 5.91719 12.4781 5.71484 12.4453 5.51523C12.8172 5.34297 13.2301 5.25 13.6648 5.25H14.8324C16.443 5.25 17.75 6.55703 17.75 8.16758C17.75 8.49023 17.4875 8.75 17.1676 8.75H11.3324ZM6.375 6.125C6.375 5.42881 6.65156 4.76113 7.14384 4.26884C7.63613 3.77656 8.30381 3.5 9 3.5C9.69619 3.5 10.3639 3.77656 10.8562 4.26884C11.3484 4.76113 11.625 5.42881 11.625 6.125C11.625 6.82119 11.3484 7.48887 10.8562 7.98116C10.3639 8.47344 9.69619 8.75 9 8.75C8.30381 8.75 7.63613 8.47344 7.14384 7.98116C6.65156 7.48887 6.375 6.82119 6.375 6.125ZM3.75 13.2699C3.75 11.2574 5.38242 9.625 7.39492 9.625H10.6051C12.6176 9.625 14.25 11.2574 14.25 13.2699C14.25 13.6719 13.9246 14 13.5199 14H4.48008C4.07812 14 3.75 13.6746 3.75 13.2699Z" fill="#6B7280"/>
</g>
</g>
<defs>
<clipPath id="clip0_11_1541">
<rect width="17.5" height="14" fill="white" transform="translate(0.25)"/>
</clipPath>
<clipPath id="clip1_11_1541">
<path d="M0.25 0H17.75V14H0.25V0Z" fill="white"/>
</clipPath>
</defs>
</svg>
