<svg width="13" height="14" viewBox="0 0 13 14" fill="none" xmlns="http://www.w3.org/2000/svg">
<g clip-path="url(#clip0_11_1547)">
<path d="M5.07812 2.1875C5.07812 1.46289 5.66602 0.875 6.39062 0.875H7.26562C7.99023 0.875 8.57812 1.46289 8.57812 2.1875V11.8125C8.57812 12.5371 7.99023 13.125 7.26562 13.125H6.39062C5.66602 13.125 5.07812 12.5371 5.07812 11.8125V2.1875ZM0.703125 7.4375C0.703125 6.71289 1.29102 6.125 2.01562 6.125H2.89062C3.61523 6.125 4.20312 6.71289 4.20312 7.4375V11.8125C4.20312 12.5371 3.61523 13.125 2.89062 13.125H2.01562C1.29102 13.125 0.703125 12.5371 0.703125 11.8125V7.4375ZM10.7656 2.625H11.6406C12.3652 2.625 12.9531 3.21289 12.9531 3.9375V11.8125C12.9531 12.5371 12.3652 13.125 11.6406 13.125H10.7656C10.041 13.125 9.45312 12.5371 9.45312 11.8125V3.9375C9.45312 3.21289 10.041 2.625 10.7656 2.625Z" fill="#6B7280"/>
</g>
<defs>
<clipPath id="clip0_11_1547">
<path d="M0.703125 0H12.9531V14H0.703125V0Z" fill="white"/>
</clipPath>
</defs>
</svg>
